<?xml version="1.0" encoding="UTF-8"?>
<svg width="1123px" height="875px" viewBox="0 0 1123 875" version="1.1" xmlns="http://www.w3.org/2000/svg" xmlns:xlink="http://www.w3.org/1999/xlink">
    <!-- Generator: Sketch 61.2 (89653) - https://sketch.com -->
    <title>Login</title>
    <desc>Created with Sketch.</desc>
    <g id="Login" stroke="none" stroke-width="1" fill="none" fill-rule="evenodd">
        <g id="Sign-In" transform="translate(-189.000000, -33.000000)">
            <circle id="Oval" fill-opacity="0.75" fill="#000000" fill-rule="nonzero" opacity="0.1" cx="225.25" cy="400.25" r="36.25"></circle>
            <circle id="Oval" fill-opacity="0.5" fill="#000000" fill-rule="nonzero" opacity="0.1" cx="1275.25" cy="158.25" r="36.25"></circle>
            <circle id="Oval" fill="#000000" fill-rule="nonzero" opacity="0.1" cx="383.25" cy="871.25" r="36.25"></circle>
            <circle id="Oval" fill-opacity="0.5" fill="#000000" fill-rule="nonzero" opacity="0.1" cx="443.87" cy="813.63" r="21.63"></circle>
            <path d="M845.075291,204.664277 C782.504571,202.489768 722.911568,182.300656 666.006244,160.20764 C609.10092,138.114625 552.727332,113.634481 491.655138,101.930788 C452.374416,94.4021534 407.457301,93.3390599 375.804561,114.388311 C345.350641,134.683732 335.508708,169.62085 330.220361,202.074195 C326.237181,226.486687 323.897547,252.174892 334.802951,275.031402 C342.372925,290.900488 355.820989,304.237479 365.121519,319.439716 C397.480017,372.323785 374.60574,437.539739 339.540227,489.177089 C323.104778,513.405956 304.020322,536.533071 291.326355,562.298592 C278.632388,588.064112 272.763966,617.627776 283.872396,643.934507 C294.874478,670.02862 321.103521,689.589541 349.517511,703.361433 C407.225272,731.340121 475.200354,739.342316 541.531891,743.87496 C688.310115,753.916361 835.881108,749.567342 983.055716,745.218324 C1037.51506,743.604354 1092.22577,741.971056 1145.80533,733.553289 C1175.55349,728.875677 1206.27811,721.463016 1227.87623,703.545059 C1255.30409,680.785194 1262.07163,642.291545 1243.7026,613.78131 C1212.8813,565.951768 1127.68766,554.074114 1106.11856,502.736363 C1094.25603,474.48707 1106.4376,443.019502 1123.67548,416.809415 C1160.6359,360.600763 1222.60721,311.28289 1225.8653,247.033385 C1228.10826,202.895676 1198.32142,158.709645 1152.26349,137.82469 C1103.98195,115.944293 1037.04133,118.689007 1001.44408,154.921166 C964.773697,192.226083 900.317734,206.577846 845.075291,204.664277 Z" id="Path" fill-opacity="0.5" fill="#000000" fill-rule="nonzero" opacity="0.1" transform="translate(766.000000, 423.500000) rotate(12.000000) translate(-766.000000, -423.500000) "></path>
        </g>
    </g>
</svg>
