<?xml version="1.0" encoding="UTF-8"?>
<svg width="144px" height="46px" viewBox="0 0 144 46" version="1.1" xmlns="http://www.w3.org/2000/svg" xmlns:xlink="http://www.w3.org/1999/xlink">
    <!-- Generator: Sketch 61.2 (89653) - https://sketch.com -->
    <title>Symbols</title>
    <desc>Created with Sketch.</desc>
    <g id="Symbols" stroke="none" stroke-width="1" fill="none" fill-rule="evenodd">
        <g id="Logo" transform="translate(-6.000000, -7.000000)">
            <path d="M72.796,42 L72.796,37.968 L59.212,37.968 L72.604,22.32 L72.604,18.48 L54.172,18.48 L54.172,22.512 L67.18,22.512 L53.788,38.16 L53.788,42 L72.796,42 Z M84.796,42.768 C87.836,42.768 90.268,41.424 92.092,38.736 L92.092,38.736 L92.284,38.736 L92.284,42 L96.508,42 L96.508,27.504 C96.508,24.464 95.564,22.072 93.676,20.328 C91.788,18.584 89.212,17.712 85.948,17.712 C81.756,17.712 78.588,19.248 76.444,22.32 L76.444,22.32 L80.332,24.768 C81.772,22.688 83.724,21.648 86.188,21.648 C87.82,21.648 89.244,22.184 90.46,23.256 C91.676,24.328 92.284,25.632 92.284,27.168 L92.284,27.168 L92.284,28.176 C90.588,27.216 88.428,26.736 85.804,26.736 C82.732,26.736 80.276,27.456 78.436,28.896 C76.596,30.336 75.676,32.272 75.676,34.704 C75.676,37.008 76.548,38.928 78.292,40.464 C80.036,42 82.204,42.768 84.796,42.768 Z M85.132,38.832 C83.82,38.832 82.676,38.448 81.7,37.68 C80.724,36.912 80.236,35.952 80.236,34.8 C80.236,33.52 80.836,32.448 82.036,31.584 C83.236,30.72 84.732,30.288 86.524,30.288 C88.988,30.288 90.908,30.832 92.284,31.92 C92.284,33.776 91.556,35.392 90.1,36.768 C88.644,38.144 86.988,38.832 85.132,38.832 Z M109.276,42.768 C112.316,42.768 114.748,41.424 116.572,38.736 L116.572,38.736 L116.764,38.736 L116.764,42 L120.988,42 L120.988,27.504 C120.988,24.464 120.044,22.072 118.156,20.328 C116.268,18.584 113.692,17.712 110.428,17.712 C106.236,17.712 103.068,19.248 100.924,22.32 L100.924,22.32 L104.812,24.768 C106.252,22.688 108.204,21.648 110.668,21.648 C112.3,21.648 113.724,22.184 114.94,23.256 C116.156,24.328 116.764,25.632 116.764,27.168 L116.764,27.168 L116.764,28.176 C115.068,27.216 112.908,26.736 110.284,26.736 C107.212,26.736 104.756,27.456 102.916,28.896 C101.076,30.336 100.156,32.272 100.156,34.704 C100.156,37.008 101.028,38.928 102.772,40.464 C104.516,42 106.684,42.768 109.276,42.768 Z M109.612,38.832 C108.3,38.832 107.156,38.448 106.18,37.68 C105.204,36.912 104.716,35.952 104.716,34.8 C104.716,33.52 105.316,32.448 106.516,31.584 C107.716,30.72 109.212,30.288 111.004,30.288 C113.468,30.288 115.388,30.832 116.764,31.92 C116.764,33.776 116.036,35.392 114.58,36.768 C113.124,38.144 111.468,38.832 109.612,38.832 Z M130.204,52.368 L130.204,42 L130.012,38.736 L130.204,38.736 C130.972,39.952 132.068,40.928 133.492,41.664 C134.916,42.4 136.492,42.768 138.22,42.768 C141.324,42.768 143.948,41.552 146.092,39.12 C148.3,36.688 149.404,33.728 149.404,30.24 C149.404,26.784 148.3,23.824 146.092,21.36 C143.948,18.928 141.324,17.712 138.22,17.712 C136.492,17.712 134.916,18.08 133.492,18.816 C132.068,19.552 130.972,20.528 130.204,21.744 L130.204,21.744 L130.012,21.744 L130.012,18.48 L125.788,18.48 L125.788,52.368 L130.204,52.368 Z M137.5,38.736 C135.356,38.736 133.564,37.952 132.124,36.384 C130.716,34.784 130.012,32.736 130.012,30.24 C130.012,27.776 130.716,25.744 132.124,24.144 C133.564,22.544 135.356,21.744 137.5,21.744 C139.612,21.744 141.388,22.544 142.828,24.144 C144.268,25.744 144.988,27.776 144.988,30.24 C144.988,32.736 144.268,34.768 142.828,36.336 C141.388,37.936 139.612,38.736 137.5,38.736 Z" id="zaap" fill="#FFFFFF" fill-rule="nonzero"></path>
            <g id="zap" transform="translate(7.000000, 9.000000)" stroke="#FFFFFF" stroke-linecap="round" stroke-linejoin="round" stroke-width="2">
                <polygon id="Path" points="21.6666667 0 0 25.8 19.5 25.8 17.3333333 43 39 17.2 19.5 17.2"></polygon>
            </g>
            <g id="zap" transform="translate(27.500000, 29.500000) rotate(-11.000000) translate(-27.500000, -29.500000) translate(-3.000000, -1.000000)" stroke="#FFFFFF" stroke-linecap="round" stroke-linejoin="round" stroke-width="2">
                <polygon id="Path" stroke-opacity="0.5" transform="translate(30.500000, 30.500000) rotate(-13.000000) translate(-30.500000, -30.500000) " points="32.7777778 8 10 35 30.5 35 28.2222222 53 51 26 30.5 26"></polygon>
                <polygon id="Path" stroke-opacity="0.15" transform="translate(30.500000, 30.500000) rotate(-37.000000) translate(-30.500000, -30.500000) " points="10 35 30.5 35 28.2222222 53 51 26 30.5 26 32.7777778 8"></polygon>
            </g>
        </g>
    </g>
</svg>
